<svg width="25" height="24" viewBox="0 0 25 24" fill="none" xmlns="http://www.w3.org/2000/svg">
<path d="M4.7143 7.89286H10.6072C10.8244 7.89286 11 7.71686 11 7.5C11 7.28315 10.8244 7.10715 10.6072 7.10715H4.7143C4.49705 7.10715 4.32144 7.28315 4.32144 7.5C4.32144 7.71686 4.49705 7.89286 4.7143 7.89286Z" fill="white"/>
<path d="M18.0714 10.25H4.7143C4.49705 10.25 4.32144 10.426 4.32144 10.6429C4.32144 10.8597 4.49705 11.0357 4.7143 11.0357H18.0714C18.2887 11.0357 18.4643 10.8597 18.4643 10.6429C18.4643 10.426 18.2887 10.25 18.0714 10.25Z" fill="white"/>
<path d="M18.0714 13.3929H4.7143C4.49705 13.3929 4.32144 13.5689 4.32144 13.7857C4.32144 14.0026 4.49705 14.1786 4.7143 14.1786H18.0714C18.2887 14.1786 18.4643 14.0026 18.4643 13.7857C18.4643 13.5689 18.2887 13.3929 18.0714 13.3929Z" fill="white"/>
<path d="M21.2143 2H2.35714C1.07957 2 0 3.07957 0 4.35714V17.3214C0 18.599 1.07957 19.6786 2.35714 19.6786H5.5V23.6071C5.5 23.7694 5.59979 23.9151 5.75143 23.9737C5.79739 23.9914 5.84532 24 5.89286 24C6.00129 24 6.10775 23.9548 6.18357 23.8715L9.99507 19.6786H21.2143C22.4919 19.6786 23.5714 18.599 23.5714 17.3214V4.35714C23.5714 3.07957 22.4919 2 21.2143 2ZM22.7857 17.3214C22.7857 18.1731 22.066 18.8929 21.2143 18.8929H10.6775L12.0835 17.2582C12.2249 17.094 12.2065 16.8457 12.0422 16.7043C11.8776 16.5636 11.6297 16.5817 11.4883 16.7459L9.53111 19.0213L6.28571 22.5912V19.2857C6.28571 19.0689 6.11011 18.8929 5.89286 18.8929H2.35714C1.50543 18.8929 0.785714 18.1731 0.785714 17.3214V4.35714C0.785714 3.50543 1.50543 2.78571 2.35714 2.78571H21.2143C22.066 2.78571 22.7857 3.50543 22.7857 4.35714V17.3214Z" fill="white"/>
</svg>
