<svg width="19" height="22" viewBox="0 0 19 22" fill="none" xmlns="http://www.w3.org/2000/svg">
<path d="M18.2687 18.5561L16.6938 15.9326C15.9678 14.7217 15.5837 13.3357 15.5837 11.9231V9.625C15.5837 6.08759 12.7045 3.20834 9.16707 3.20834C5.62967 3.20834 2.75042 6.08759 2.75042 9.625V11.9231C2.75042 13.3357 2.36632 14.7217 1.64032 15.9326L0.0654691 18.5561C-0.0197809 18.6972 -0.0216285 18.8742 0.0590668 19.0172C0.140665 19.1611 0.293719 19.25 0.458719 19.25H17.8754C18.0404 19.25 18.1935 19.1611 18.275 19.0172C18.3557 18.8742 18.3539 18.6972 18.2687 18.5561ZM1.26816 18.3333L2.42592 16.4037C3.23807 15.0507 3.66707 13.5016 3.66707 11.9231V9.625C3.66707 6.59175 6.13382 4.125 9.16707 4.125C12.2003 4.125 14.6671 6.59175 14.6671 9.625V11.9231C14.6671 13.5016 15.0961 15.0507 15.9073 16.4037L17.066 18.3333H1.26816Z" fill="white"/>
<path d="M9.16706 0C8.15596 0 7.33371 0.82225 7.33371 1.83335V3.6667C7.33371 3.91965 7.53906 4.125 7.79206 4.125C8.04506 4.125 8.25041 3.91965 8.25041 3.66665V1.83335C8.25041 1.32735 8.66106 0.916695 9.16706 0.916695C9.67306 0.916695 10.0837 1.32735 10.0837 1.83335V3.6667C10.0837 3.91965 10.2891 4.125 10.5421 4.125C10.7951 4.125 11.0004 3.91965 11.0004 3.66665V1.83335C11.0004 0.82225 10.1782 0 9.16706 0Z" fill="white"/>
<path d="M11.1507 18.5598C11.0215 18.3416 10.7419 18.2701 10.5228 18.3957C10.3037 18.524 10.2304 18.8054 10.3587 19.0236C10.4779 19.2262 10.543 19.4691 10.543 19.7083C10.543 20.4664 9.92606 21.0833 9.16796 21.0833C8.40987 21.0833 7.79296 20.4664 7.79296 19.7083C7.79296 19.4691 7.85806 19.2262 7.97721 19.0236C8.10462 18.8045 8.03131 18.524 7.81312 18.3957C7.59221 18.2701 7.31352 18.3416 7.18521 18.5598C6.98262 18.9063 6.87537 19.3032 6.87537 19.7084C6.87541 20.9724 7.90296 22 9.16706 22C10.4312 22 11.4587 20.9724 11.4606 19.7084C11.4606 19.3032 11.3533 18.9063 11.1507 18.5598Z" fill="white"/>
</svg>
